<?xml version="1.0" encoding="UTF-8"?>
<svg id="Layer_2" data-name="Layer 2" xmlns="http://www.w3.org/2000/svg" viewBox="0 0 2792.37 2740.41">
  <defs>
    <style>
      .cls-1 {
        fill: #8f0613;
      }

      .cls-2 {
        opacity: .55;
      }
    </style>
  </defs>
  <g id="_1" data-name="1">
    <g>
      <g class="cls-2">
        <polygon class="cls-1" points="2711.25 0 2710.36 83.83 2626.53 82.93 2626.53 82.93 2626.53 82.93 2625.63 166.76 2541.81 165.87 2541.42 202.04 2541.46 202.04 2540.95 249.71 2457.12 248.81 2457.12 248.81 2456.22 332.64 2372.4 331.74 2372.4 331.75 2372.39 331.75 2371.49 415.57 2287.67 414.68 2287.67 414.68 2287.66 414.68 2286.77 498.5 2202.94 497.61 2202.56 533.78 2202.59 533.79 2202.08 581.45 2118.26 580.56 2118.25 580.56 2117.36 664.38 2033.53 663.49 2033.15 699.66 2033.16 699.66 2032.65 747.41 1948.83 746.51 1948.82 746.51 1947.93 830.34 1864.1 829.45 1863.72 865.62 1863.75 865.62 1863.24 913.29 1779.41 912.39 1779.41 912.39 1778.52 996.22 1694.69 995.32 1694.69 995.33 1694.68 995.33 1693.79 1079.15 1609.96 1078.26 1609.96 1078.26 1609.96 1078.26 1609.06 1162.09 1525.24 1161.19 1524.85 1197.37 1524.88 1197.37 1524.38 1245.03 1440.55 1244.14 1440.54 1244.14 1439.65 1327.96 1391.99 1327.46 1391.99 1327.45 1355.82 1327.07 1354.92 1410.9 1271.09 1410 1271.09 1410 1271.09 1410 1270.2 1493.83 1186.37 1492.93 1185.98 1529.11 1186.02 1529.11 1185.51 1576.77 1101.68 1575.88 1101.68 1575.88 1100.78 1659.71 1016.96 1658.81 1016.96 1658.81 1016.95 1658.81 1016.06 1742.64 932.23 1741.75 932.23 1741.75 932.22 1741.75 931.33 1825.57 847.51 1824.68 847.12 1860.85 847.15 1860.85 846.64 1908.52 762.82 1907.63 762.81 1907.63 761.92 1991.45 678.09 1990.56 677.71 2026.73 677.72 2026.73 677.21 2074.48 593.39 2073.58 593.38 2073.58 592.49 2157.41 508.66 2156.51 508.28 2192.69 508.31 2192.69 507.8 2240.35 423.98 2239.46 423.97 2239.46 423.08 2323.29 339.25 2322.39 339.25 2322.39 339.24 2322.39 338.35 2406.22 254.52 2405.33 254.52 2405.33 254.52 2405.33 253.62 2489.15 169.8 2488.26 169.41 2524.43 169.45 2524.43 168.94 2572.1 85.11 2571.21 85.11 2571.21 84.21 2655.03 .39 2654.14 0 2690.31 83.83 2691.21 120 2691.59 120.39 2655.42 120.89 2607.77 168.55 2608.27 204.73 2608.66 205.11 2572.49 205.62 2524.82 253.24 2525.33 289.41 2525.71 289.8 2489.54 290.31 2441.89 337.96 2442.39 374.14 2442.78 374.52 2406.61 375.03 2358.95 422.69 2359.46 458.87 2359.85 459.25 2323.67 459.76 2276.02 507.42 2276.53 543.59 2276.91 543.98 2240.74 544.48 2193.07 592.1 2193.58 628.28 2193.97 628.66 2157.79 629.17 2110.14 676.83 2110.65 713 2111.04 713.39 2074.86 713.9 2027.12 761.53 2027.63 797.71 2028.01 798.09 1991.84 798.6 1944.19 846.26 1944.69 882.43 1945.08 882.82 1908.91 883.33 1861.24 930.95 1861.75 967.12 1862.13 967.51 1825.96 968.01 1778.31 1015.67 1778.81 1051.84 1779.2 1052.23 1743.03 1052.74 1695.37 1100.4 1695.88 1136.57 1696.27 1136.96 1660.09 1137.47 1612.44 1185.12 1612.95 1221.3 1613.33 1221.68 1577.16 1222.19 1529.49 1269.81 1530 1305.99 1530.39 1306.37 1494.21 1306.88 1446.56 1354.54 1447.07 1390.71 1447.45 1391.1 1411.28 1391.6 1363.63 1439.26 1364.14 1475.44 1364.52 1475.82 1328.35 1476.33 1280.7 1523.99 1281.2 1560.16 1281.59 1560.55 1245.42 1561.06 1197.75 1608.68 1198.26 1644.85 1198.64 1645.24 1162.47 1645.74 1114.82 1693.4 1115.33 1729.58 1115.71 1729.96 1079.54 1730.47 1031.88 1778.13 1032.39 1814.3 1032.78 1814.69 996.6 1815.2 948.95 1862.85 949.46 1899.03 949.85 1899.41 913.67 1899.92 866.01 1947.54 866.51 1983.72 866.9 1984.1 830.73 1984.61 783.07 2032.27 783.58 2068.44 783.97 2068.83 747.79 2069.34 700.05 2116.97 700.56 2153.15 700.94 2153.53 664.77 2154.04 617.12 2201.7 617.62 2237.87 618.01 2238.26 581.84 2238.76 534.17 2286.38 534.68 2322.56 535.06 2322.94 498.89 2323.45 451.24 2371.11 451.75 2407.28 452.13 2407.67 415.96 2408.18 368.3 2455.84 368.81 2492.01 369.2 2492.4 333.02 2492.9 285.37 2540.56 285.88 2576.74 286.27 2577.12 250.09 2577.63 202.43 2625.25 202.93 2661.42 203.32 2661.81 167.15 2662.32 119.49 2709.97 120 2746.15 120.39 2746.53 84.21 2747.43 .39 2711.25 0"/>
      </g>
      <g class="cls-2">
        <polygon class="cls-1" points="2756.2 48.82 2755.31 132.64 2671.48 131.75 2671.48 131.75 2671.47 131.75 2670.58 215.58 2586.75 214.68 2586.37 250.86 2586.4 250.86 2585.89 298.52 2502.07 297.63 2502.06 297.63 2501.17 381.45 2417.34 380.56 2417.34 380.56 2417.33 380.56 2416.44 464.39 2332.61 463.49 2332.61 463.49 2332.61 463.49 2331.71 547.32 2247.89 546.43 2247.5 582.6 2247.54 582.6 2247.03 630.27 2163.2 629.37 2163.2 629.37 2162.3 713.2 2078.48 712.31 2078.09 748.48 2078.11 748.48 2077.6 796.22 1993.77 795.33 1993.77 795.33 1992.87 879.16 1909.05 878.26 1908.66 914.44 1908.69 914.44 1908.19 962.1 1824.36 961.21 1824.35 961.21 1823.46 1045.03 1739.63 1044.14 1739.63 1044.14 1739.63 1044.14 1738.73 1127.97 1654.91 1127.07 1654.91 1127.07 1654.9 1127.07 1654.01 1210.9 1570.18 1210.01 1569.8 1246.18 1569.83 1246.18 1569.32 1293.85 1485.49 1292.95 1485.49 1292.95 1484.6 1376.78 1436.93 1376.27 1436.93 1376.27 1400.76 1375.88 1399.87 1459.71 1316.04 1458.82 1316.04 1458.82 1316.04 1458.82 1315.14 1542.64 1231.32 1541.75 1230.93 1577.92 1230.96 1577.92 1230.45 1625.59 1146.63 1624.7 1146.62 1624.7 1145.73 1708.52 1061.9 1707.63 1061.9 1707.63 1061.9 1707.63 1061 1791.46 977.18 1790.56 977.18 1790.56 977.17 1790.56 976.28 1874.39 892.45 1873.5 892.07 1909.67 892.1 1909.67 891.59 1957.34 807.76 1956.44 807.76 1956.44 806.86 2040.27 723.04 2039.37 722.65 2075.55 722.67 2075.55 722.16 2123.29 638.33 2122.4 638.33 2122.4 637.43 2206.22 553.61 2205.33 553.22 2241.5 553.26 2241.51 552.75 2289.17 468.92 2288.28 468.92 2288.28 468.02 2372.1 384.2 2371.21 384.2 2371.21 384.19 2371.21 383.29 2455.04 299.47 2454.14 299.47 2454.14 299.46 2454.14 298.57 2537.97 214.74 2537.08 214.36 2573.25 214.39 2573.25 213.88 2620.92 130.06 2620.02 130.05 2620.02 129.16 2703.85 45.33 2702.95 44.95 2739.13 128.77 2740.02 164.95 2740.41 165.33 2704.23 165.84 2656.58 213.5 2657.09 249.67 2657.48 250.06 2621.3 250.56 2573.64 298.18 2574.14 334.36 2574.53 334.74 2538.36 335.25 2490.7 382.91 2491.21 419.08 2491.6 419.47 2455.42 419.98 2407.77 467.64 2408.28 503.81 2408.66 504.2 2372.49 504.7 2324.84 552.36 2325.34 588.54 2325.73 588.92 2289.56 589.43 2241.89 637.05 2242.4 673.22 2242.78 673.61 2206.61 674.12 2158.96 721.77 2159.47 757.95 2159.85 758.33 2123.68 758.84 2075.93 806.48 2076.44 842.65 2076.83 843.04 2040.65 843.55 1993 891.2 1993.51 927.38 1993.9 927.76 1957.72 928.27 1910.06 975.89 1910.56 1012.07 1910.95 1012.45 1874.78 1012.96 1827.12 1060.62 1827.63 1096.79 1828.02 1097.18 1791.84 1097.68 1744.19 1145.34 1744.7 1181.52 1745.08 1181.9 1708.91 1182.41 1661.26 1230.07 1661.76 1266.24 1662.15 1266.63 1625.98 1267.14 1578.31 1314.76 1578.82 1350.93 1579.2 1351.32 1543.03 1351.82 1495.38 1399.48 1495.89 1435.65 1496.27 1436.04 1460.1 1436.55 1412.45 1484.21 1412.95 1520.38 1413.34 1520.77 1377.17 1521.28 1329.51 1568.93 1330.02 1605.11 1330.41 1605.49 1294.23 1606 1246.57 1653.62 1247.08 1689.8 1247.46 1690.18 1211.29 1690.69 1163.63 1738.35 1164.14 1774.52 1164.53 1774.91 1128.35 1775.42 1080.7 1823.07 1081.21 1859.25 1081.59 1859.63 1045.42 1860.14 997.77 1907.8 998.28 1943.97 998.66 1944.36 962.49 1944.87 914.82 1992.49 915.33 2028.66 915.72 2029.05 879.54 2029.55 831.89 2077.21 832.4 2113.39 832.78 2113.77 796.61 2114.28 748.87 2161.92 749.37 2198.09 749.76 2198.48 713.59 2198.98 665.93 2246.64 666.44 2282.82 666.83 2283.2 630.65 2283.71 582.99 2331.33 583.49 2367.5 583.88 2367.89 547.71 2368.4 500.05 2416.05 500.56 2452.23 500.95 2452.61 464.77 2453.12 417.12 2500.78 417.63 2536.96 418.01 2537.34 381.84 2537.85 334.19 2585.51 334.7 2621.68 335.08 2622.07 298.91 2622.58 251.24 2670.19 251.75 2706.37 252.14 2706.75 215.96 2707.26 168.31 2754.92 168.82 2791.09 169.2 2791.48 133.03 2792.37 49.2 2756.2 48.82"/>
      </g>
    </g>
  </g>
</svg>